<svg xmlns="http://www.w3.org/2000/svg"
    xmlns:xlink="http://www.w3.org/1999/xlink" width="202" height="198">
    <defs>
        <path id="a" d="M943.09 392.17c-5.07 10.9-49.72 41.19-51.66 37.66-1.94-3.54-60.58-90.52-50.38-102.34 10.21-11.81 31.83-31.26 37.51-30.15 5.69 1.1 16.12 9.78 16.12 9.78l22.77 37.02z"/>
        <path id="b" d="M910.68 361.15l-3.5-1.54c1.02-2.3 2.96-4.35 5.94-6.28l2.08 3.22c-2.34 1.5-3.82 3.01-4.52 4.6"/>
        <path id="c" d="M898.59 384.4c-.3 1.32-.8 2.64-1.49 3.93l3.37 1.81c.86-1.6 1.49-3.25 1.86-4.92.24-1.11.35-2.24.36-3.36-1.32.06-2.62.11-3.81.06-.02.83-.11 1.65-.3 2.48"/>
        <path id="d" d="M904.72 408.96a19 19 0 0 1-5.54-.79l1.12-3.66c1.33.4 2.86.62 4.43.63 3.32 0 6.5-.94 8.7-2.56l2.28 3.08c-2.86 2.1-6.86 3.3-10.99 3.3"/>
        <path id="e" d="M886.73 368.24l-4.13-1.57a5.02 5.02 0 0 1 3.64-2.98c2.11-.45 4.61.2 7.05 1.84l-2.52 3c-1.49-1-2.66-1.2-3.22-1.08-.14.03-.53.11-.82.8"/>
        <path id="f" d="M863.26 332.08l-1.85-3.59c1.8 0 4.32-.88 4.1-3.45l3.82-.32c.42 5.09-3.8 7.04-6.07 7.36"/>
        <path id="g" d="M880.13 349.5c-4.72-.28-8.04-2.34-8.18-2.43l-1.28-4.93c.02.01 5.99 3.32 9.7 3.54z"/>
        <path id="h" d="M944.06 361.67c-3.88 3.04 2.8 25.2-.97 30.5-3.77 5.29-62.1-87.66-64.53-94.84-2.42-7.17-7-35.02-1.2-38 5.8-2.98 52.36 55.7 52.36 55.7z"/>
        <path id="i" d="M902.89 392.83c1.32 7.05-8.28 35.69-11.46 37-3.17 1.31-54.2-86.91-60.58-93.83-6.38-6.93 4.47-33.7 4.47-33.7z"/>
        <path id="j" d="M792 345.2c6.31-25.7 40.69-54.67 44.42-52.21 3.73 2.45 40.62 56.96 66.47 99.84 2.73 4.54-22.85 8.8-38.2 50.03-2.59 7.42-26.7-53.48-72.69-97.67"/>
        <path id="k" d="M944.06 361.67c19.2-9.9 47.32-9.48 49.12-13.92 1.8-4.44-60.37-97.66-69.25-100.9-8.88-3.26-42.17 3.34-46.58 12.48-5.04 7.23 66.71 102.34 66.71 102.34"/>
        <path id="l" d="M857.75 359.16c2.38 2.3 5.21 3.47 8.4 3.47.89 0 1.8-.09 2.72-.27l-.74-3.75a8.16 8.16 0 0 1-7.71-2.2 23.1 23.1 0 0 1-2.01-2.22l-3 2.38c.72.9 1.5 1.77 2.34 2.59"/>
        <path id="m" d="M857.8 401.35l.38-3.81c-3.1-.3-6.97-2.68-8.5-8.41l-3.7.99c2.04 7.62 7.45 10.8 11.83 11.23"/>
        <path id="n" d="M872.09 377.35c-4.77-4.25-9.63-6.86-14.05-7.54l-.58 3.78c3.64.56 7.93 2.91 12.07 6.62z"/>
        <path id="o" d="M880.1 356.34l-2.1-3.26c-.45.42-3.04 2.74-6.08 4.21l1.67 3.44a29.47 29.47 0 0 0 6.51-4.39"/>
        <path id="p" d="M837.47 356.5c2.76-3.12 4.35-6.84 4.35-10.2 0-.35-.02-.7-.05-1.04a19 19 0 0 1-.07-2.93l-3.82-.19a26.31 26.31 0 0 0 .11 4.16c0 2.4-1.27 5.27-3.39 7.66z"/>
        <path id="q" d="M819.7 328.36l-1.14-3.65c-3.96 1.23-8.36 5.17-8.85 12.5l3.82.27c.36-5.42 3.42-8.26 6.16-9.12"/>
        <path id="r" d="M857.69 334.63l1.61 3.47c1.8-.83 5.08-1.52 7.78-1.75l-2.34-3.54c-2.71.31-5.1.91-7.05 1.82"/>
        <path id="s" d="M838.59 337.18l3.73.88c1.03-4.43 3.25-8.67 5.94-11.32l-2.69-2.72c-3.23 3.18-5.77 7.98-6.98 13.16"/>
        <path id="t" d="M848.92 384.54a23.5 23.5 0 0 1-.08-1.9c0-3.3.79-7.52 4.56-8.8l-1.23-3.62c-2.68.9-7.16 3.73-7.16 12.43 0 .7.03 1.43.1 2.2z"/>
        <path id="u" d="M853.44 337.71a10.68 10.68 0 0 0-2.66 7.22c0 2.39.69 5 1.99 7.55l3.41-1.73a13.1 13.1 0 0 1-1.57-5.82c0-1.84.57-3.41 1.7-4.68z"/>
        <path id="v" d="M849.92 320.95l1.57 3.5c1.93-.88 5.97-.7 7.84.27l-3.38-5c-2.02-.13-4.12.38-6.03 1.23"/>
        <path id="w" d="M886.56 386.93c-2.81.85-6.44-1.12-10.78-5.9l-2.84 2.56.18.2c4.31 4.76 8.39 7.17 12.11 7.17a10 10 0 0 0 3.98-1.2z"/>
        <path id="x" d="M810 342.3c.92 5.86 2.52 10.54 4.75 13.92l3.2-2.11c-1.93-2.92-3.33-7.1-4.17-12.41z"/>
        <path id="y" d="M893.3 377.18c-.01.05-.01 3.93-3.67 7.49l2.98 2.4a29.35 29.35 0 0 0 3.41-5.48l-2.73-4.41"/>
        <path id="z" d="M867.77 393.8c.13-1.17-.93-2.14-2.1-2.03-.9.08-1.6.8-1.71 1.68a4.35 4.35 0 0 1-2.03 3.32l2.03 3.24a8.19 8.19 0 0 0 3.8-6.2"/>
        <path id="A" d="M829.38 305.3c-.61.94-.36 2.25.63 2.8 1.3.72 3 1.19 5.72 1.3l.17-3.82a9.69 9.69 0 0 1-3.97-1 2 2 0 0 0-2.55.71"/>
        <path id="B" d="M839.13 305.53l.27 3.82a70.17 70.17 0 0 0 8.56-1.22l-2.48-3.51c-1.25.26-3.7.73-6.35.91"/>
        <path id="C" d="M830.68 331.32c-.93-3.35-3.22-5.79-6.27-6.7l-1.1 3.67c1.82.54 3.1 1.95 3.69 4.06z"/>
        <path id="D" d="M818.31 360.12a11.47 11.47 0 0 0 7.1 2.44c2.72 0 5.55-.92 8.18-2.67l-2.12-3.19c-3.78 2.5-7.78 2.71-10.84.38z"/>
        <path id="E" d="M913.05 295.25l1.4 3.57a37.68 37.68 0 0 1 15.86-2.69l.26-3.81c-5.51-.39-11.72.66-17.52 2.93"/>
        <path id="F" d="M936.6 293.42l-1.16 3.65c3.07.98 6.73 3.1 6.73 7.7 0 .94-.15 1.96-.45 3.03l3.68 1.03c.4-1.4.6-2.77.6-4.06 0-5.31-3.43-9.45-9.4-11.35"/>
        <path id="G" d="M918.98 312.23a1.91 1.91 0 0 0-.84 2.71 26.3 26.3 0 0 0 3.7 4.94l2.75-2.67a22.68 22.68 0 0 1-3.16-4.23 1.9 1.9 0 0 0-2.45-.75"/>
        <path id="H" d="M922.05 274.6a10.67 10.67 0 0 0 4.26-5.35l-3.62-1.24a6.95 6.95 0 0 1-2.82 3.44 1.9 1.9 0 0 0-.63 2.42 1.93 1.93 0 0 0 2.8.73"/>
        <path id="I" d="M957.1 318.33c-1.39 0-2.72.22-3.96.64a10.64 10.64 0 0 0-5.79 4.7l3.3 1.96a6.73 6.73 0 0 1 3.72-3.04c.84-.29 1.76-.43 2.73-.43 1.28 0 2.6.25 3.96.74l1.3-3.6a15.35 15.35 0 0 0-5.25-.97z"/>
        <path id="J" d="M946.46 335.79a2.19 2.19 0 1 0 4.06-1.59 9.96 9.96 0 0 1-1.07-4.72l-3.8-.32c-.2 2.26.3 4.78.81 6.63"/>
        <path id="K" d="M955.91 344.15l.85 3.73c1.49-.34 3.04-.79 4.62-1.34 3.96-1.39 7.02-3.21 9.1-5.42l-2.78-2.63c-1.66 1.76-4.21 3.25-7.59 4.44-1.44.5-2.85.91-4.2 1.22"/>
        <path id="L" d="M928.57 319.91l-1.23 3.63c1.02.34 2.05.52 3.09.52 3.07 0 6.1-1.51 9.08-4.64a42.34 42.34 0 0 0 3.43-4.95l-3.3-1.93a38.38 38.38 0 0 1-3 4.36c-2.78 2.9-5.44 3.9-8.07 3.01"/>
        <path id="M" d="M903.43 305.46a38.75 38.75 0 0 1 6.1-4.32l-1.86-3.34a40.47 40.47 0 0 0-6.44 4.45l1.08 1.59z"/>
        <path id="N" d="M916 252.92l-1.03 3.69c3.63 1.01 6.99 4.44 7.82 7.97l3.73-.88c-1.14-4.86-5.57-9.4-10.52-10.78"/>
        <path id="O" d="M932.79 342.12l2.28-3.07c-2.78-2.06-5.9-4.36-8.98-1.7l2.11 2.9c.68-.31 1.9-.12 4.59 1.87"/>
        <path id="P" d="M967.06 321.83l-2.27 3.09c3.15 2.31 5.1 5.57 5.1 8.5 0 .6-.07 1.2-.23 1.78l3.68 1.02c.26-.9.39-1.85.39-2.8 0-4.19-2.5-8.52-6.67-11.59"/>
        <path id="Q" d="M951.72 348.63l-.25-3.82c-4.73.32-8.6-.69-12.61-3.13l-1.99 3.27a24.49 24.49 0 0 0 14.85 3.68"/>
        <path id="R" d="M904.33 284c.53-1.73.8-3.6.8-5.59 0-.79-.04-1.61-.13-2.38a64.05 64.05 0 0 1 0-6.1l-3.83-.22a55.9 55.9 0 0 0 .02 6.62c.07.73.11 1.42.11 2.08a15 15 0 0 1-.63 4.45z"/>
        <path id="S" d="M895.53 293.8c1.13-.47 4.09-1.91 6.44-5.11l-3.08-2.27c-1.19 1.61-3.88 3.06-5.66 3.9l2.3 3.48"/>
        <path id="T" d="M911.46 256.5l-.96-3.7c-3.15.82-7.22 3.59-8.78 12.14l3.77.69c.94-5.2 3-8.35 5.97-9.12"/>
        <path id="U" d="M889.3 297.68c-.2-.72-.8-2.93.41-4.82a6.86 6.86 0 0 1 3.5-2.54l2.31 3.48a4.48 4.48 0 0 0-2.53 1.61c-.22.36-.2.97.02 1.88z"/>
        <path id="V" d="M889.75 306.68c-.69.8-1.29 1.4-1.54 1.66l-2.66-2.76c1.62-1.58 3.35-3.96 3.34-5l3.83-.06c.03 2.15-1.63 4.57-2.97 6.16"/>
        <path id="W" d="M900.32 311.83c-.95-3.49-1.96-6.12.9-9.58l2.2 3.21c-.43.77-.72 3 .6 5.37z"/>
        <path id="X" d="M909 327.91c-1 0-2.26-.22-3.75-.65l1.06-3.68c.84.25 1.48.38 1.94.44a18.9 18.9 0 0 0-2.13-2.4 22.92 22.92 0 0 1-3.41-4.3l3.26-2a19.09 19.09 0 0 0 2.84 3.57c2.62 2.6 3.8 4.46 3.8 6.04 0 1.37-.95 2.98-3.61 2.98"/>
        <path id="Y" d="M902.3 322.25c-.68-.23-5.64-1.86-7.07-2.04-.22 1.3-.51 2.55-.89 3.75.6.04 5.2 1.39 6.71 1.91z"/>
        <path id="Z" d="M912.91 353.46c4.13-2.85 5.76-2.49 7.47-2.2l-.64 3.78c-.06 0-2.27-.92-4.66 1.57z"/>
        <path id="aa" d="M923.1 345.53l3.8-1.22c1.3 1.96 1.31 1.73 2.59 2.54-.62 1.03-1.19 2.2-1.9 3.47a16.38 16.38 0 0 1-4.49-4.79"/>
        <path id="ab" d="M931.6 348.34c-.58 1.24-1.1 2.43-1.77 3.42.3.2.6.4.84.6-.32.01-.77-.01-1.28-.06-.1.12-.19.27-.3.38.11-.11.2-.26.3-.38-.19-.01-.35-.02-.56-.05-1.2-.15-2.4-.34-3.55-.53l-.85-.14-.61 3.78.85.14c1.19.2 2.45.4 3.69.55 2.52.31 4.3.1 5.42-.63 1.52-.99 1.82-2.83.74-4.49a9.04 9.04 0 0 0-2.92-2.59"/>
        <path id="ac" d="M926.2 342.63l-3.87.28c0-2.99 2.58-5.21 3.76-5.56l2.11 2.9c-1.79.9-1.76 1.22-2 2.38"/>
        <path id="ad" d="M877.95 313.4h-.35l.14-3.83c1.06.03 3.03-.37 6.14-2.43l1.97 3.41c-2.93 1.94-5.45 2.85-7.9 2.85"/>
        <path id="ae" d="M865.07 320.62v-.35c0-4.9 1.58-8.52 4.57-10.45a5.57 5.57 0 0 1 3.66-.91l-.37 3.81-.23-.01c-.25 0-.54.04-.98.32-2.33 1.51-2.82 4.77-2.82 7.24v.3z"/>
        <path id="af" d="M884.15 324.01l-1.93-3.3c3.03-1.78 6-2.47 8.6-2.03l-.65 3.77c-1.67-.28-3.8.27-6.02 1.56"/>
        <path id="ag" d="M887.08 348.74l-1.14-3.64.41-.14c2.27-.79 3.11-1.8 3.11-2.26 0-.61-1.53-2.18-6.26-3.09l.72-3.76c8.16 1.58 9.37 4.97 9.37 6.85 0 2.49-2.07 4.62-5.68 5.87zm-9.34-9.81c-5.4-.82-5.99-4.23-5.99-5.65 0-3.04 2.36-6.74 6.32-9.9l2.39 3c-2.87 2.29-4.88 5.12-4.88 6.9 0 .4 0 1.45 2.73 1.86z"/>
        <path id="ah" d="M919.55 400.93l-3.51-1.51c.38-.89.58-1.87.58-2.92 0-1.09-.21-2.27-.62-3.51-.74-2.24-1.6-4.5-2.61-6.89l3.52-1.49a91.37 91.37 0 0 1 2.72 7.18c.54 1.63.81 3.21.81 4.7 0 1.58-.3 3.07-.89 4.44"/>
        <path id="ai" d="M895.22 371.66a12.33 12.33 0 0 1 3.28 5.87c1.17-.25 2.4-.63 3.67-1.04a16.13 16.13 0 0 0-4.25-7.55z"/>
        <path id="aj" d="M911.31 381.45l-1.55-3.24c-2.1-4.37-3.92-8.14-4.48-11.54l3.78-.63c.47 2.86 2.1 6.24 4.15 10.5l1.56 3.28z"/>
        <path id="ak" d="M937.59 360.07c-4.04-1.45-8.83-.88-12.77.62-4.7 1.8-6.03 4.96-9.18 8.3-6.74 7.17-11.23 15.63-8.35 25.78 2.17 7.65 8.44 13.85 15.91 16.43 9.46-7.18 17.86-14.67 19.9-19.04 3.06-4.3-.78-19.72-.25-27-1.27-2.33-2.94-4.25-5.26-5.09"/>
        <path id="al" d="M944.28 385.3c0-.47-.02-.96-.05-1.47l-.01-.3-.11-1.65-.03-.38-.15-1.66-.02-.14c-.05-.57-.1-1.14-.17-1.7l-.05-.53-.17-1.53-.23-2.13v-.03l-.18-1.76-.02-.3-.14-1.7-.01-.12-.1-1.5v-.23l-.03-1.44v-.25c0-.46.02-.9.05-1.32-1.27-2.33-2.95-4.25-5.27-5.09-4.04-1.45-8.83-.88-12.77.62-2.15.83-3.6 1.94-4.84 3.23 11.67 17.16 21.63 30.32 23.11 28.24.18-.24.32-.53.45-.84l.08-.18c.11-.31.22-.65.3-1.01l.04-.21c.08-.35.14-.72.18-1.12l.03-.15a20.05 20.05 0 0 0 .1-1.67c.02-.47.03-.96.02-1.47v-.2"/>
        <path id="am" d="M926.89 348.73s37.45 37.14 41.04 40.53c3.6 3.4 9.33 9.65 11.7 13.04 2.36 3.39 5.6 4.3 8.18 1.8 2.59-2.51.3-3.9-3.03-7.66-3.33-3.77-13.9-14-18.8-19.43-6.45-7.16-15.73-15.61-24.66-23.85-8.7-8.03-15.3-16.98-17.54-15.25-2.24 1.72 3.1 10.82 3.1 10.82"/>
        <path id="an" d="M889.96 339.54c-.95-13.01 11.46-35.21 33.26-31.5 21.8 3.72 30.82 18.46 29.84 35-.98 16.54-15.82 27.98-36.02 27.08-20.2-.9-26.01-15.97-27.08-30.58"/>
        <path id="ao" d="M942.2 357.88c-3.88-3.61-10.81-1.39-15.15.14-4.75 1.67-9.63 3.79-14.79 2.98-4.84-.75-8.7-3.9-11.04-8.11a25.3 25.3 0 0 1-2.76-7.58l-.1.04c-2.18.94-4.61 2.5-7.05 3.1 2.72 11.27 9.68 20.95 25.74 21.66 9.68.44 18.13-1.97 24.4-6.42-.7-.72-.72-2.55-.63-3.32.14-1.03.63-1.9 1.37-2.49"/>
        <path id="ap" d="M896.2 339.08c0-13.92 7.5-24.8 20.84-26.28 13.34-1.5 26.98 10.5 29.88 16.6 2.91 6.1 3.87 18.62-.94 23.76-4.82 5.14-10.45 10.03-26.66 11.14-12.97.89-23.13-8.56-23.12-25.22"/>
        <path id="aq" d="M920.7 365.54a31.6 31.6 0 0 1-4.65-.34c-7.07-1.06-12.68-4.49-16.24-9.93-3.16-4.83-4.64-11.42-4.15-18.54.04-.57.49-1.06 1.11-.97.57.04 1 .54.97 1.11-.46 6.67.9 12.8 3.82 17.26 4.07 6.22 10.3 8.33 14.8 9a33.96 33.96 0 0 0 25.65-7.16c.44-.36 1.1-.3 1.47.13.37.45.3 1.1-.14 1.47-6.06 5.05-14.55 7.97-22.63 7.97"/>
        <path id="ar" d="M986.23 394.58c-4.02-4.74-17.15-17.25-23.08-24.06a95.56 95.56 0 0 0-4.2-4.59 3.17 3.17 0 0 0-3-.59c-3.35 1.4-4.76 3.4-5.97 6.27-.63 1.47-1.01 2.54.13 3.66 6.57 6.42 11.74 11.46 13.1 12.7 4.49 4.13 11.44 11.95 14.14 16.36 2.7 4.4 7.2 4.99 11.56.74 4.36-4.26 1.33-5.75-2.68-10.5"/>
        <path id="as" d="M989.34 399.37c-2.26-.64-4.85 1.46-6.45 2.84-1.75 1.5-3.2 4.89-.26 5.74 1.98.11 4.15-.8 6.28-2.89 1.87-1.83 2.38-3.14 2.03-4.43-.3-.58-.8-1.04-1.6-1.26"/>
        <path id="at" d="M952.25 344.44l-.16-.01a1.04 1.04 0 0 1-.87-1.2 28.37 28.37 0 0 0-8.42-24.09c-9.59-9.31-24.11-12.12-35.32-6.84a1.04 1.04 0 0 1-.89-1.89c11.98-5.64 27.46-2.67 37.67 7.24a30.47 30.47 0 0 1 9.02 25.9c-.08.52-.52.89-1.03.89"/>
        <path id="au" d="M942 329.64c-1.17-1.03-3.67-.06-2.94 1.71 2.2 5.31 3.9 9.87 1.69 15.63-2.35 6.11-8.12 10.55-14.04 12.97-.46.18-.3.86.2.74 7.38-1.8 14.08-5.58 17.33-12.8 2.5-5.57 2.72-13.9-2.24-18.25"/>
        <path id="av" d="M954.03 374.92a1.05 1.05 0 0 1-.97-1.42c1.32-3.39 5.68-4.32 5.87-4.36.58-.12 1.1.25 1.22.81.12.57-.24 1.11-.8 1.23-.04 0-3.44.75-4.35 3.07-.16.41-.55.67-.97.67"/>
        <path id="aw" d="M957.58 378.5c-.12 0-.25-.02-.37-.06-.54-.21-.8-.82-.6-1.35 1.32-3.39 5.68-4.32 5.87-4.36a1.04 1.04 0 0 1 .42 2.04c-.04 0-3.44.75-4.35 3.07-.16.41-.55.67-.97.67"/>
        <path id="ax" d="M961.13 382.1a1.05 1.05 0 0 1-.97-1.42c1.32-3.38 5.68-4.32 5.87-4.36a1.04 1.04 0 0 1 .42 2.04c-.04 0-3.44.75-4.35 3.07-.16.42-.55.67-.97.67"/>
        <path id="ay" d="M964.7 385.69a1.05 1.05 0 0 1-.97-1.42c1.31-3.39 5.67-4.32 5.85-4.36a1.04 1.04 0 0 1 .42 2.04c-.03.01-3.43.75-4.34 3.07-.16.42-.55.67-.97.67"/>
        <path id="az" d="M968.24 389.54a1.04 1.04 0 0 1-.99-1.37c1.14-3.44 5.45-4.6 5.63-4.65.56-.14 1.12.2 1.27.75.15.55-.19 1.12-.74 1.27-.04 0-3.4.92-4.18 3.29-.14.44-.55.71-.99.71"/>
        <path id="aA" d="M971.6 393.42a1.04 1.04 0 0 1-1-1.37c1.13-3.45 5.43-4.62 5.61-4.67.57-.16 1.13.18 1.27.73.15.56-.18 1.13-.73 1.28-.04.01-3.4.94-4.16 3.3-.15.45-.56.73-1 .73"/>
        <path id="aB" d="M974.93 397.39c-.1 0-.2-.01-.3-.05a1.04 1.04 0 0 1-.7-1.3c1.06-3.47 5.33-4.74 5.52-4.79a1.04 1.04 0 0 1 .57 2c-.03.01-3.37 1.01-4.09 3.4-.14.45-.55.74-1 .74"/>
        <path id="aC" d="M978.18 401.32a1.04 1.04 0 0 1-1-1.35c1.09-3.47 5.37-4.7 5.55-4.75a1.04 1.04 0 0 1 .57 2c-.04.01-3.38.99-4.12 3.37-.14.44-.55.73-1 .73"/>
        <path id="aD" d="M897.1 389.37c-.42 0-.82-.26-.98-.67-2.04-4.78-56.35-85.64-61.63-89.8-3.27 1.22-20.89 18.02-23.87 23.43a1.04 1.04 0 1 1-1.82-1c3-5.44 21.95-24.13 25.67-24.57h.05c4.92 0 63.19 90.25 63.55 91.19a1.05 1.05 0 0 1-.98 1.42"/>
        <path id="aE" d="M986 341.17c-.35 0-.7-.17-.9-.5-6.73-11.05-59.26-87.21-63.89-89.44-4.19-.94-27.87 2-38.42 8.86a1.04 1.04 0 0 1-1.14-1.74c11.2-7.27 35.5-10.17 40.1-9.12 5.2 1.17 62.42 85.9 65.14 90.36a1.04 1.04 0 0 1-.9 1.58"/>
        <path id="aF" d="M862.38 437.18c-.38 0-.75-.22-.92-.57-.07-.12-6.63-12.93-10.18-17.22a1.05 1.05 0 0 1 1.6-1.33c2.74 3.31 7 11.08 9.13 15.11 1.23-4.95 3.83-14.02 6.74-15.39a1.05 1.05 0 0 1 1.38.5c.25.52.03 1.14-.5 1.38-1.98.94-4.84 10.33-6.23 16.7a1.04 1.04 0 0 1-1.02.82"/>
        <path id="aG" d="M937.03 335.34a12.51 12.51 0 0 0-1.08-3.96c-1.2-6.82-9.47-11-15.86-10.8-12.51.39-19.64 13.52-12.66 24.02.32-.16.68-.22 1.05-.18-2.28-3.78-3.25-8.33-1.49-12.41.15-.34.63-.08.56.23-.84 4.31 2.08 8.8 5.17 11.52 6.45 5.66 15.84 2.95 19.6-4.37.11-.24.54-.2.59.07.96 6.19-4.35 11.2-9.88 12.62 3.76-.54 7.57-2.27 9.8-4.97.61-.74 1.08-1.59 1.48-2.47a12.8 12.8 0 0 0 2.72-9.3"/>
    </defs>
    <use fill="#fcdb7e" xlink:href="#a" transform="translate(-792 -246)"/>
    <use fill="#ffb229" xlink:href="#b" transform="translate(-792 -246)"/>
    <use fill="#ffb229" xlink:href="#c" transform="translate(-792 -246)"/>
    <use fill="#ffb229" xlink:href="#d" transform="translate(-792 -246)"/>
    <use fill="#ffb229" xlink:href="#e" transform="translate(-792 -246)"/>
    <use fill="#ffb229" xlink:href="#f" transform="translate(-792 -246)"/>
    <use fill="#ffb229" xlink:href="#g" transform="translate(-792 -246)"/>
    <use fill="#fcd250" xlink:href="#h" transform="translate(-792 -246)"/>
    <use fill="#fcbd24" xlink:href="#i" transform="translate(-792 -246)"/>
    <use fill="#ffeeb6" xlink:href="#j" transform="translate(-792 -246)"/>
    <use fill="#ffeeb6" xlink:href="#k" transform="translate(-792 -246)"/>
    <use fill="#fcd250" xlink:href="#l" transform="translate(-792 -246)"/>
    <use fill="#fcd250" xlink:href="#m" transform="translate(-792 -246)"/>
    <use fill="#fcd250" xlink:href="#n" transform="translate(-792 -246)"/>
    <use fill="#fcd250" xlink:href="#o" transform="translate(-792 -246)"/>
    <use fill="#fcd250" xlink:href="#p" transform="translate(-792 -246)"/>
    <use fill="#fcd250" xlink:href="#q" transform="translate(-792 -246)"/>
    <use fill="#fcd250" xlink:href="#r" transform="translate(-792 -246)"/>
    <use fill="#fcd250" xlink:href="#s" transform="translate(-792 -246)"/>
    <use fill="#fcd250" xlink:href="#t" transform="translate(-792 -246)"/>
    <use fill="#fcd250" xlink:href="#u" transform="translate(-792 -246)"/>
    <use fill="#fcd250" xlink:href="#v" transform="translate(-792 -246)"/>
    <use fill="#fcd250" xlink:href="#w" transform="translate(-792 -246)"/>
    <use fill="#fcd250" xlink:href="#x" transform="translate(-792 -246)"/>
    <use fill="#fcd250" xlink:href="#y" transform="translate(-792 -246)"/>
    <use fill="#fcd250" xlink:href="#z" transform="translate(-792 -246)"/>
    <use fill="#fcd250" xlink:href="#A" transform="translate(-792 -246)"/>
    <use fill="#fcd250" xlink:href="#B" transform="translate(-792 -246)"/>
    <use fill="#fcd250" xlink:href="#C" transform="translate(-792 -246)"/>
    <use fill="#fcd250" xlink:href="#D" transform="translate(-792 -246)"/>
    <use fill="#fcd250" xlink:href="#E" transform="translate(-792 -246)"/>
    <use fill="#fcd250" xlink:href="#F" transform="translate(-792 -246)"/>
    <use fill="#fcd250" xlink:href="#G" transform="translate(-792 -246)"/>
    <use fill="#fcd250" xlink:href="#H" transform="translate(-792 -246)"/>
    <use fill="#fcd250" xlink:href="#I" transform="translate(-792 -246)"/>
    <use fill="#fcd250" xlink:href="#J" transform="translate(-792 -246)"/>
    <use fill="#fcd250" xlink:href="#K" transform="translate(-792 -246)"/>
    <use fill="#fcd250" xlink:href="#L" transform="translate(-792 -246)"/>
    <use fill="#fcd250" xlink:href="#M" transform="translate(-792 -246)"/>
    <use fill="#fcd250" xlink:href="#N" transform="translate(-792 -246)"/>
    <use fill="#fcd250" xlink:href="#O" transform="translate(-792 -246)"/>
    <use fill="#fcd250" xlink:href="#P" transform="translate(-792 -246)"/>
    <use fill="#fcd250" xlink:href="#Q" transform="translate(-792 -246)"/>
    <use fill="#fcd250" xlink:href="#R" transform="translate(-792 -246)"/>
    <use fill="#fcd250" xlink:href="#S" transform="translate(-792 -246)"/>
    <use fill="#fcd250" xlink:href="#T" transform="translate(-792 -246)"/>
    <use fill="#ffb229" xlink:href="#U" transform="translate(-792 -246)"/>
    <use fill="#ffb229" xlink:href="#V" transform="translate(-792 -246)"/>
    <use fill="#ffb229" xlink:href="#W" transform="translate(-792 -246)"/>
    <use fill="#ffb229" xlink:href="#X" transform="translate(-792 -246)"/>
    <use fill="#ffb229" xlink:href="#Y" transform="translate(-792 -246)"/>
    <use fill="#ffb229" xlink:href="#Z" transform="translate(-792 -246)"/>
    <use fill="#ffb229" xlink:href="#aa" transform="translate(-792 -246)"/>
    <use fill="#ffb229" xlink:href="#ab" transform="translate(-792 -246)"/>
    <use fill="#ffb229" xlink:href="#ac" transform="translate(-792 -246)"/>
    <use fill="#ffb229" xlink:href="#ad" transform="translate(-792 -246)"/>
    <use fill="#ffb229" xlink:href="#ae" transform="translate(-792 -246)"/>
    <use fill="#ffb229" xlink:href="#af" transform="translate(-792 -246)"/>
    <use fill="#ffb229" xlink:href="#ag" transform="translate(-792 -246)"/>
    <use fill="#ffb229" xlink:href="#ah" transform="translate(-792 -246)"/>
    <use fill="#ffb229" xlink:href="#ai" transform="translate(-792 -246)"/>
    <use fill="#ffb229" xlink:href="#aj" transform="translate(-792 -246)"/>
    <use fill="#fcbd24" xlink:href="#ak" transform="translate(-792 -246)"/>
    <use fill="#ffb229" xlink:href="#al" transform="translate(-792 -246)"/>
    <use fill="#92cdfa" xlink:href="#am" transform="translate(-792 -246)"/>
    <use fill="#92cdfa" xlink:href="#an" transform="translate(-792 -246)"/>
    <use fill="#5eb2fc" xlink:href="#ao" transform="translate(-792 -246)"/>
    <use fill="#c7ebff" xlink:href="#ap" transform="translate(-792 -246)"/>
    <use fill="#5eb2fc" xlink:href="#aq" transform="translate(-792 -246)"/>
    <use fill="#1273eb" xlink:href="#ar" transform="translate(-792 -246)"/>
    <use fill="#0161cd" xlink:href="#as" transform="translate(-792 -246)"/>
    <use fill="#c7ebff" xlink:href="#at" transform="translate(-792 -246)"/>
    <use fill="#92cdfa" xlink:href="#au" transform="translate(-792 -246)"/>
    <use fill="#0161cd" xlink:href="#av" transform="translate(-792 -246)"/>
    <use fill="#0161cd" xlink:href="#aw" transform="translate(-792 -246)"/>
    <use fill="#0161cd" xlink:href="#ax" transform="translate(-792 -246)"/>
    <use fill="#0161cd" xlink:href="#ay" transform="translate(-792 -246)"/>
    <use fill="#0161cd" xlink:href="#az" transform="translate(-792 -246)"/>
    <use fill="#0161cd" xlink:href="#aA" transform="translate(-792 -246)"/>
    <use fill="#0161cd" xlink:href="#aB" transform="translate(-792 -246)"/>
    <use fill="#0161cd" xlink:href="#aC" transform="translate(-792 -246)"/>
    <use fill="#f8fafb" xlink:href="#aD" transform="translate(-792 -246)"/>
    <use fill="#f8fafb" xlink:href="#aE" transform="translate(-792 -246)"/>
    <use fill="#fcdb7e" xlink:href="#aF" transform="translate(-792 -246)"/>
    <use fill="#f8fafb" xlink:href="#aG" transform="translate(-792 -246)"/>
</svg>